<svg width="24" height="24" viewBox="0 0 24 24" fill="none" xmlns="http://www.w3.org/2000/svg">
<path d="M3 16C3.10909 14.5982 3.55227 13.299 4.32955 12.1022C5.10682 10.9054 6.13636 9.95653 7.41818 9.25564L5.88409 6.69675C5.84318 6.57773 5.83977 6.45872 5.87386 6.3397C5.90795 6.22068 5.97955 6.12811 6.08864 6.06199C6.21136 5.99587 6.34432 5.98264 6.4875 6.02232C6.63068 6.06199 6.73636 6.14133 6.80455 6.26035L8.31818 8.77957C9.49091 8.29027 10.7182 8.04562 12 8.04562C13.2818 8.04562 14.5091 8.29027 15.6818 8.77957L17.2159 6.26035C17.2841 6.14133 17.3898 6.06199 17.533 6.02232C17.6761 5.98264 17.8091 5.99587 17.9318 6.06199C18.0409 6.12811 18.1193 6.22399 18.167 6.34962C18.2148 6.47525 18.2045 6.59096 18.1364 6.69675L16.5818 9.25564C17.8636 9.95653 18.8932 10.9054 19.6705 12.1022C20.4477 13.299 20.8909 14.5982 21 16H3ZM7.90909 13.818C8.18182 13.818 8.42045 13.7188 8.625 13.5205C8.82955 13.3221 8.93182 13.0907 8.93182 12.8262C8.93182 12.5617 8.82955 12.3303 8.625 12.1319C8.42045 11.9335 8.18182 11.8344 7.90909 11.8344C7.63636 11.8344 7.39773 11.9335 7.19318 12.1319C6.98864 12.3303 6.88636 12.5617 6.88636 12.8262C6.88636 13.0907 6.98864 13.3221 7.19318 13.5205C7.39773 13.7188 7.63636 13.818 7.90909 13.818ZM16.0909 13.818C16.3636 13.818 16.6023 13.7188 16.8068 13.5205C17.0114 13.3221 17.1136 13.0907 17.1136 12.8262C17.1136 12.5617 17.0114 12.3303 16.8068 12.1319C16.6023 11.9335 16.3636 11.8344 16.0909 11.8344C15.8182 11.8344 15.5795 11.9335 15.375 12.1319C15.1705 12.3303 15.0682 12.5617 15.0682 12.8262C15.0682 13.0907 15.1705 13.3221 15.375 13.5205C15.5795 13.7188 15.8182 13.818 16.0909 13.818Z" fill="#757575"/>
</svg>
