<svg width="24" height="24" viewBox="0 0 24 24" fill="none" xmlns="http://www.w3.org/2000/svg">
<g clip-path="url(#clip0_199_633)">
<path d="M15.182 4.00801C15.148 3.97001 13.923 4.02301 12.857 5.18001C11.791 6.33601 11.955 7.66201 11.979 7.69601C12.003 7.73001 13.499 7.78301 14.454 6.43801C15.409 5.09301 15.216 4.04701 15.182 4.00801ZM18.496 15.741C18.448 15.645 16.171 14.507 16.383 12.319C16.595 10.13 18.058 9.53001 18.081 9.46501C18.104 9.40001 17.484 8.67501 16.827 8.30801C16.3446 8.04926 15.8107 7.90102 15.264 7.87401C15.156 7.87101 14.781 7.77901 14.01 7.99001C13.502 8.12901 12.357 8.57901 12.042 8.59701C11.726 8.61501 10.786 8.07501 9.77499 7.93201C9.12799 7.80701 8.44199 8.06301 7.95099 8.26001C7.46099 8.45601 6.52899 9.01401 5.87699 10.497C5.22499 11.979 5.56599 14.327 5.80999 15.057C6.05399 15.786 6.43499 16.981 7.08299 17.853C7.65899 18.837 8.42299 19.52 8.74199 19.752C9.06099 19.984 9.96099 20.138 10.585 19.819C11.087 19.511 11.993 19.334 12.351 19.347C12.708 19.36 13.412 19.501 14.133 19.886C14.704 20.083 15.244 20.001 15.785 19.781C16.326 19.56 17.109 18.722 18.023 17.023C18.37 16.233 18.528 15.806 18.496 15.741Z" fill="#757575"/>
</g>
<defs>
<clipPath id="clip0_199_633">
<rect width="16" height="16" fill="white" transform="translate(4 4)"/>
</clipPath>
</defs>
</svg>
