<svg width="48" height="48" viewBox="0 0 48 48" fill="none" xmlns="http://www.w3.org/2000/svg">
<g clip-path="url(#clip0_366_105)">
<path fill-rule="evenodd" clip-rule="evenodd" d="M26.5 20.5645C26.5 19.9003 26.2366 19.2634 25.7678 18.7937C25.2989 18.3241 24.663 18.0603 24 18.0603C23.337 18.0603 22.7011 18.3241 22.2322 18.7937C21.7634 19.2634 21.5 19.9003 21.5 20.5645V21.0653H26.5V20.5645ZM27.5 20.5645V21.0653H31V31.082C31 31.6134 30.7893 32.1229 30.4142 32.4986C30.0391 32.8743 29.5304 33.0854 29 33.0854H19C18.4696 33.0854 17.9609 32.8743 17.5858 32.4986C17.2107 32.1229 17 31.6134 17 31.082V21.0653H20.5V20.5645C20.5 19.6346 20.8687 18.7429 21.5251 18.0854C22.1815 17.428 23.0717 17.0586 24 17.0586C24.9283 17.0586 25.8185 17.428 26.4749 18.0854C27.1313 18.7429 27.5 19.6346 27.5 20.5645ZM30 31.082V22.067H18V31.082C18 31.3477 18.1054 31.6025 18.2929 31.7903C18.4804 31.9782 18.7348 32.0837 19 32.0837H29C29.2652 32.0837 29.5196 31.9782 29.7071 31.7903C29.8946 31.6025 30 31.3477 30 31.082ZM24 25.065C25.664 23.3511 29.825 26.3501 24 30.2056C18.175 26.3491 22.336 23.3511 24 25.065Z" fill="#26130C"/>
</g>
<defs>
<clipPath id="clip0_366_105">
<rect width="16" height="16.0268" fill="white" transform="translate(16 17.0586)"/>
</clipPath>
</defs>
</svg>
