<svg width="48" height="48" viewBox="0 0 48 48" fill="none" xmlns="http://www.w3.org/2000/svg">
<rect width="48" height="48" fill="white"/>
<g clip-path="url(#clip0_366_102)">
<path d="M23.9999 18.748L23.2829 18.011C21.5999 16.281 18.5139 16.878 17.3999 19.053C16.8769 20.076 16.7589 21.553 17.7139 23.438C18.6339 25.253 20.5479 27.427 23.9999 29.795C27.4519 27.427 29.3649 25.253 30.2859 23.438C31.2409 21.552 31.1239 20.076 30.5999 19.053C29.4859 16.878 26.3999 16.28 24.7169 18.01L23.9999 18.748ZM23.9999 31C8.66689 20.868 19.2789 12.96 23.8239 17.143C23.8839 17.198 23.9429 17.255 23.9999 17.314C24.0563 17.2551 24.115 17.1984 24.1759 17.144C28.7199 12.958 39.3329 20.867 23.9999 31Z" fill="#26130C"/>
</g>
<defs>
<clipPath id="clip0_366_102">
<rect width="16" height="16" fill="white" transform="translate(16 16)"/>
</clipPath>
</defs>
</svg>
