<svg width="44" height="44" viewBox="0 0 44 44" fill="none" xmlns="http://www.w3.org/2000/svg">
<g clip-path="url(#clip0_366_57)">
<path d="M27.5003 15.0003C27.1024 15.0003 26.7209 15.1583 26.4396 15.4397C26.1583 15.721 26.0003 16.1025 26.0003 16.5003C26.0003 16.8981 26.1583 17.2797 26.4396 17.561C26.7209 17.8423 27.1024 18.0003 27.5003 18.0003C27.8981 18.0003 28.2796 17.8423 28.5609 17.561C28.8422 17.2797 29.0003 16.8981 29.0003 16.5003C29.0003 16.1025 28.8422 15.721 28.5609 15.4397C28.2796 15.1583 27.8981 15.0003 27.5003 15.0003ZM25.0003 16.5003C25.0002 15.9137 25.2064 15.3458 25.5827 14.8959C25.9591 14.446 26.4817 14.1428 27.059 14.0393C27.6364 13.9357 28.2318 14.0385 28.741 14.3296C29.2502 14.6207 29.6409 15.0816 29.8446 15.6317C30.0484 16.1817 30.0522 16.7859 29.8555 17.3385C29.6587 17.8911 29.274 18.3569 28.7685 18.6545C28.263 18.952 27.669 19.0623 27.0903 18.9662C26.5117 18.87 25.9853 18.5734 25.6033 18.1283L18.8853 21.2483C19.0397 21.7378 19.0397 22.2629 18.8853 22.7523L25.6033 25.8723C26.0071 25.4026 26.5709 25.0996 27.1855 25.022C27.8 24.9443 28.4215 25.0976 28.9294 25.452C29.4374 25.8065 29.7957 26.3369 29.9349 26.9404C30.0741 27.544 29.9843 28.1778 29.6829 28.7189C29.3814 29.26 28.8898 29.67 28.3033 29.8693C27.7169 30.0686 27.0773 30.0431 26.5085 29.7977C25.9398 29.5524 25.4824 29.1046 25.225 28.5412C24.9676 27.9778 24.9285 27.3389 25.1153 26.7483L18.3973 23.6283C18.0647 24.0159 17.6214 24.2923 17.127 24.4204C16.6327 24.5485 16.1109 24.5221 15.632 24.3448C15.1531 24.1675 14.7399 23.8477 14.4482 23.4286C14.1564 23.0095 14 22.511 14 22.0003C14 21.4896 14.1564 20.9912 14.4482 20.572C14.7399 20.1529 15.1531 19.8331 15.632 19.6558C16.1109 19.4785 16.6327 19.4521 17.127 19.5802C17.6214 19.7083 18.0647 19.9847 18.3973 20.3723L25.1153 17.2523C25.0388 17.009 25 16.7554 25.0003 16.5003ZM16.5003 20.5003C16.1024 20.5003 15.7209 20.6583 15.4396 20.9397C15.1583 21.221 15.0003 21.6025 15.0003 22.0003C15.0003 22.3981 15.1583 22.7797 15.4396 23.061C15.7209 23.3423 16.1024 23.5003 16.5003 23.5003C16.8981 23.5003 17.2796 23.3423 17.5609 23.061C17.8422 22.7797 18.0003 22.3981 18.0003 22.0003C18.0003 21.6025 17.8422 21.221 17.5609 20.9397C17.2796 20.6583 16.8981 20.5003 16.5003 20.5003ZM27.5003 26.0003C27.1024 26.0003 26.7209 26.1583 26.4396 26.4397C26.1583 26.721 26.0003 27.1025 26.0003 27.5003C26.0003 27.8981 26.1583 28.2797 26.4396 28.561C26.7209 28.8423 27.1024 29.0003 27.5003 29.0003C27.8981 29.0003 28.2796 28.8423 28.5609 28.561C28.8422 28.2797 29.0003 27.8981 29.0003 27.5003C29.0003 27.1025 28.8422 26.721 28.5609 26.4397C28.2796 26.1583 27.8981 26.0003 27.5003 26.0003Z" fill="#26130C"/>
</g>
<defs>
<clipPath id="clip0_366_57">
<rect width="16" height="16" fill="white" transform="translate(14 14)"/>
</clipPath>
</defs>
</svg>
