<svg width="44" height="44" viewBox="0 0 44 44" fill="none" xmlns="http://www.w3.org/2000/svg">
<path fill-rule="evenodd" clip-rule="evenodd" d="M24.5 17.5C24.5 16.837 24.2366 16.2011 23.7678 15.7322C23.2989 15.2634 22.663 15 22 15C21.337 15 20.7011 15.2634 20.2322 15.7322C19.7634 16.2011 19.5 16.837 19.5 17.5V18H24.5V17.5ZM25.5 17.5V18H29V28C29 28.5304 28.7893 29.0391 28.4142 29.4142C28.0391 29.7893 27.5304 30 27 30H17C16.4696 30 15.9609 29.7893 15.5858 29.4142C15.2107 29.0391 15 28.5304 15 28V18H18.5V17.5C18.5 16.5717 18.8687 15.6815 19.5251 15.0251C20.1815 14.3687 21.0717 14 22 14C22.9283 14 23.8185 14.3687 24.4749 15.0251C25.1313 15.6815 25.5 16.5717 25.5 17.5ZM28 28V19H16V28C16 28.2652 16.1054 28.5196 16.2929 28.7071C16.4804 28.8946 16.7348 29 17 29H27C27.2652 29 27.5196 28.8946 27.7071 28.7071C27.8946 28.5196 28 28.2652 28 28ZM22 21.993C23.664 20.282 27.825 23.276 22 27.125C16.175 23.275 20.336 20.282 22 21.993Z" fill="white"/>
</svg>
