<svg width="24" height="24" viewBox="0 0 24 24" fill="none" xmlns="http://www.w3.org/2000/svg">
<g clip-path="url(#clip0_1225_38)">
<path d="M20 12.0857C20 7.61944 16.418 3.99902 12 3.99902C7.58005 4.00003 3.99805 7.61944 3.99805 12.0867C3.99805 16.122 6.92405 19.4671 10.748 20.0739V14.4233H8.71805V12.0867H10.75V10.3036C10.75 8.27742 11.945 7.15835 13.772 7.15835C14.648 7.15835 15.563 7.31606 15.563 7.31606V9.30508H14.554C13.561 9.30508 13.251 9.92891 13.251 10.5688V12.0857H15.469L15.115 14.4223H13.25V20.0729C17.074 19.4661 20 16.121 20 12.0857Z" fill="#757575"/>
</g>
<defs>
<clipPath id="clip0_1225_38">
<rect width="16" height="16.0729" fill="white" transform="translate(4 4)"/>
</clipPath>
</defs>
</svg>
