<svg width="24" height="24" viewBox="0 0 24 24" fill="none" xmlns="http://www.w3.org/2000/svg">
<g clip-path="url(#clip0_1225_37)">
<path d="M12 4C9.829 4 9.556 4.01005 8.703 4.04822C7.85 4.0884 7.269 4.22301 6.76 4.42191C6.22609 4.62365 5.74249 4.94009 5.343 5.34912C4.93608 5.75063 4.62111 6.23638 4.42 6.77257C4.222 7.28288 4.087 7.86753 4.048 8.7214C4.01 9.5803 4 9.85354 4 12.0374C4 14.2193 4.01 14.4926 4.048 15.3495C4.088 16.2053 4.222 16.789 4.42 17.3003C4.625 17.8287 4.898 18.2767 5.343 18.7237C5.787 19.1708 6.233 19.446 6.759 19.651C7.269 19.8499 7.849 19.9855 8.701 20.0246C9.555 20.0628 9.827 20.0729 12 20.0729C14.173 20.0729 14.444 20.0628 15.298 20.0246C16.149 19.9845 16.732 19.8499 17.241 19.651C17.7746 19.4491 18.2578 19.1327 18.657 18.7237C19.102 18.2767 19.375 17.8287 19.58 17.3003C19.777 16.789 19.912 16.2053 19.952 15.3495C19.99 14.4926 20 14.2193 20 12.0364C20 9.85354 19.99 9.5803 19.952 8.72241C19.912 7.86753 19.777 7.28288 19.58 6.77257C19.3789 6.23636 19.0639 5.75061 18.657 5.34912C18.2576 4.93994 17.774 4.62347 17.24 4.42191C16.73 4.22301 16.148 4.0874 15.297 4.04822C14.443 4.01005 14.172 4 11.998 4H12.001H12ZM11.283 5.44857H12.001C14.137 5.44857 14.39 5.4556 15.233 5.49478C16.013 5.52994 16.437 5.66153 16.719 5.77103C17.092 5.91669 17.359 6.09148 17.639 6.37276C17.919 6.65403 18.092 6.92124 18.237 7.29695C18.347 7.57923 18.477 8.00516 18.512 8.78871C18.551 9.63555 18.559 9.8897 18.559 12.0344C18.559 14.1791 18.551 14.4343 18.512 15.2811C18.477 16.0647 18.346 16.4896 18.237 16.7729C18.1087 17.1218 17.904 17.4374 17.638 17.6961C17.358 17.9774 17.092 18.1512 16.718 18.2968C16.438 18.4073 16.014 18.5379 15.233 18.5741C14.39 18.6122 14.137 18.6213 12.001 18.6213C9.865 18.6213 9.611 18.6122 8.768 18.5741C7.988 18.5379 7.565 18.4073 7.283 18.2968C6.9355 18.1682 6.62113 17.9629 6.363 17.6961C6.09675 17.4369 5.89172 17.1211 5.763 16.7719C5.654 16.4896 5.523 16.0637 5.488 15.2801C5.45 14.4333 5.442 14.1791 5.442 12.0324C5.442 9.88669 5.45 9.63354 5.488 8.7867C5.524 8.00315 5.654 7.57722 5.764 7.29393C5.909 6.91923 6.083 6.65102 6.363 6.36974C6.643 6.08847 6.909 5.91468 7.283 5.76902C7.565 5.65852 7.988 5.52793 8.768 5.49176C9.506 5.45761 9.792 5.44756 11.283 5.44656V5.44857ZM16.271 6.78261C16.1449 6.78261 16.0201 6.80756 15.9036 6.85602C15.7872 6.90449 15.6813 6.97552 15.5922 7.06507C15.503 7.15462 15.4323 7.26093 15.3841 7.37794C15.3358 7.49494 15.311 7.62034 15.311 7.74699C15.311 7.87363 15.3358 7.99903 15.3841 8.11604C15.4323 8.23304 15.503 8.33935 15.5922 8.4289C15.6813 8.51845 15.7872 8.58949 15.9036 8.63795C16.0201 8.68641 16.1449 8.71136 16.271 8.71136C16.5256 8.71136 16.7698 8.60976 16.9498 8.4289C17.1299 8.24805 17.231 8.00275 17.231 7.74699C17.231 7.49122 17.1299 7.24593 16.9498 7.06507C16.7698 6.88422 16.5256 6.78261 16.271 6.78261ZM12.001 7.90972C11.4561 7.90118 10.9149 8.00163 10.409 8.2052C9.90306 8.40878 9.44251 8.71143 9.05415 9.09552C8.66579 9.47962 8.35736 9.93748 8.14684 10.4425C7.93632 10.9474 7.8279 11.4895 7.8279 12.0369C7.8279 12.5844 7.93632 13.1264 8.14684 13.6314C8.35736 14.1364 8.66579 14.5943 9.05415 14.9783C9.44251 15.3624 9.90306 15.6651 10.409 15.8687C10.9149 16.0722 11.4561 16.1727 12.001 16.1641C13.0795 16.1472 14.1082 15.705 14.865 14.9328C15.6217 14.1606 16.0459 13.1205 16.0459 12.0369C16.0459 10.9533 15.6217 9.91322 14.865 9.14106C14.1082 8.36889 13.0795 7.92663 12.001 7.90972ZM12.001 9.35729C12.7083 9.35729 13.3867 9.63955 13.8869 10.142C14.387 10.6444 14.668 11.3259 14.668 12.0364C14.668 12.747 14.387 13.4284 13.8869 13.9309C13.3867 14.4333 12.7083 14.7156 12.001 14.7156C11.2937 14.7156 10.6153 14.4333 10.1151 13.9309C9.61499 13.4284 9.334 12.747 9.334 12.0364C9.334 11.3259 9.61499 10.6444 10.1151 10.142C10.6153 9.63955 11.2937 9.35729 12.001 9.35729Z" fill="#757575"/>
</g>
<defs>
<clipPath id="clip0_1225_37">
<rect width="16" height="16.0729" fill="white" transform="translate(4 4)"/>
</clipPath>
</defs>
</svg>
