<svg width="44" height="44" viewBox="0 0 44 44" fill="none" xmlns="http://www.w3.org/2000/svg">
<g clip-path="url(#clip0_60_34)">
<path d="M25 20C25 20.7956 24.6839 21.5587 24.1213 22.1213C23.5587 22.6839 22.7956 23 22 23C21.2044 23 20.4413 22.6839 19.8787 22.1213C19.3161 21.5587 19 20.7956 19 20C19 19.2044 19.3161 18.4413 19.8787 17.8787C20.4413 17.3161 21.2044 17 22 17C22.7956 17 23.5587 17.3161 24.1213 17.8787C24.6839 18.4413 25 19.2044 25 20Z" fill="white"/>
<path fill-rule="evenodd" clip-rule="evenodd" d="M14 22C14 19.8783 14.8429 17.8434 16.3431 16.3431C17.8434 14.8429 19.8783 14 22 14C24.1217 14 26.1566 14.8429 27.6569 16.3431C29.1571 17.8434 30 19.8783 30 22C30 24.1217 29.1571 26.1566 27.6569 27.6569C26.1566 29.1571 24.1217 30 22 30C19.8783 30 17.8434 29.1571 16.3431 27.6569C14.8429 26.1566 14 24.1217 14 22ZM22 15C20.6818 15.0001 19.3904 15.3724 18.2744 16.074C17.1584 16.7757 16.2633 17.7782 15.692 18.9662C15.1206 20.1542 14.8964 21.4793 15.045 22.7892C15.1936 24.099 15.7091 25.3402 16.532 26.37C17.242 25.226 18.805 24 22 24C25.195 24 26.757 25.225 27.468 26.37C28.2909 25.3402 28.8064 24.099 28.955 22.7892C29.1036 21.4793 28.8794 20.1542 28.308 18.9662C27.7367 17.7782 26.8416 16.7757 25.7256 16.074C24.6096 15.3724 23.3182 15.0001 22 15Z" fill="white"/>
</g>
<defs>
<clipPath id="clip0_60_34">
<rect width="16" height="16" fill="white" transform="translate(14 14)"/>
</clipPath>
</defs>
</svg>
