<svg width="24" height="24" viewBox="0 0 24 24" fill="none" xmlns="http://www.w3.org/2000/svg">
<g clip-path="url(#clip0_1225_30)">
<path d="M12 4C10.1347 3.99881 8.32764 4.65244 6.89123 5.84785C5.45483 7.04327 4.4794 8.70533 4.13361 10.5466C3.78782 12.388 4.09341 14.2928 4.99754 15.9318C5.90167 17.5707 7.34749 18.8408 9.08502 19.5224C9.01502 18.8865 8.95102 17.9091 9.11202 17.2149C9.25802 16.5871 10.05 13.2198 10.05 13.2198C10.05 13.2198 9.81102 12.7386 9.81102 12.0274C9.81102 10.9093 10.456 10.0755 11.259 10.0755C11.941 10.0755 12.271 10.5899 12.271 11.2077C12.271 11.8968 11.834 12.9275 11.608 13.8828C11.42 14.6824 12.008 15.3354 12.793 15.3354C14.215 15.3354 15.308 13.8286 15.308 11.6547C15.308 9.73098 13.931 8.38588 11.966 8.38588C9.69002 8.38588 8.35402 10.1007 8.35402 11.8727C8.35402 12.5638 8.61902 13.3042 8.94902 13.707C8.97744 13.7374 8.99754 13.7746 9.00735 13.8151C9.01717 13.8556 9.01636 13.898 9.00502 13.9381C8.94402 14.1912 8.80902 14.7377 8.78302 14.8492C8.74802 14.9959 8.66702 15.027 8.51502 14.9567C7.51502 14.4896 6.89102 13.0219 6.89102 11.8426C6.89102 9.30807 8.72502 6.98051 12.177 6.98051C14.952 6.98051 17.109 8.96652 17.109 11.6216C17.109 14.3911 15.37 16.6202 12.958 16.6202C12.147 16.6202 11.385 16.1973 11.124 15.697L10.626 17.6077C10.445 18.3059 9.95702 19.1808 9.63102 19.7142C10.731 20.0559 11.8914 20.155 13.033 20.0048C14.1746 19.8546 15.2705 19.4587 16.2458 18.844C17.2211 18.2293 18.0528 17.4104 18.6842 16.4432C19.3155 15.476 19.7316 14.3833 19.904 13.2398C20.0764 12.0962 20.001 10.9287 19.6831 9.81713C19.3651 8.70551 18.8121 7.67593 18.0617 6.79872C17.3113 5.92152 16.3813 5.21736 15.3351 4.73434C14.289 4.25133 13.1514 4.00085 12 4V4Z" fill="#757575"/>
</g>
<defs>
<clipPath id="clip0_1225_30">
<rect width="16" height="16.0729" fill="white" transform="translate(4 4)"/>
</clipPath>
</defs>
</svg>
