<svg width="44" height="44" viewBox="0 0 44 44" fill="none" xmlns="http://www.w3.org/2000/svg">
<g clip-path="url(#clip0_60_37)">
<path d="M27 20.4998C27.0022 21.8826 26.5613 23.2298 25.742 24.3438C25.782 24.3738 25.82 24.4058 25.857 24.4418L29.707 28.2918C29.8946 28.4793 30.0001 28.7337 30.0002 28.9989C30.0003 29.2642 29.895 29.5186 29.7075 29.7063C29.52 29.8939 29.2656 29.9994 29.0004 29.9995C28.7351 29.9996 28.4806 29.8943 28.293 29.7068L24.443 25.8568C24.4068 25.821 24.3734 25.7826 24.343 25.7418H24.345C23.1668 26.6062 21.7317 27.0484 20.2714 26.997C18.811 26.9456 17.4106 26.4036 16.2961 25.4585C15.1816 24.5134 14.418 23.2204 14.1287 21.788C13.8394 20.3557 14.0411 18.8676 14.7014 17.564C15.3616 16.2604 16.4419 15.2174 17.7678 14.6031C19.0937 13.9889 20.5878 13.8393 22.0092 14.1786C23.4305 14.5179 24.6961 15.3262 25.6016 16.4731C26.5071 17.62 26.9997 19.0385 27 20.4998ZM20.5 25.9998C21.2223 25.9998 21.9375 25.8575 22.6048 25.5811C23.2721 25.3047 23.8784 24.8996 24.3891 24.3889C24.8998 23.8781 25.3049 23.2718 25.5813 22.6045C25.8577 21.9372 26 21.2221 26 20.4998C26 19.7775 25.8577 19.0623 25.5813 18.395C25.3049 17.7277 24.8998 17.1214 24.3891 16.6107C23.8784 16.1 23.2721 15.6948 22.6048 15.4184C21.9375 15.142 21.2223 14.9998 20.5 14.9998C19.0413 14.9998 17.6424 15.5792 16.6109 16.6107C15.5795 17.6421 15 19.0411 15 20.4998C15 21.9585 15.5795 23.3574 16.6109 24.3889C17.6424 25.4203 19.0413 25.9998 20.5 25.9998Z" fill="white"/>
</g>
<defs>
<clipPath id="clip0_60_37">
<rect width="16" height="16" fill="white" transform="translate(14 14)"/>
</clipPath>
</defs>
</svg>
