<svg width="24" height="24" viewBox="0 0 24 24" fill="none" xmlns="http://www.w3.org/2000/svg">
<g clip-path="url(#clip0_1225_29)">
<path d="M12 4C9.87827 4 7.84344 4.84669 6.34315 6.35382C4.84285 7.86094 4 9.90504 4 12.0364C4 14.1678 4.84285 16.2119 6.34315 17.719C7.84344 19.2262 9.87827 20.0729 12 20.0729C14.1217 20.0729 16.1566 19.2262 17.6569 17.719C19.1571 16.2119 20 14.1678 20 12.0364C20 9.90504 19.1571 7.86094 17.6569 6.35382C16.1566 4.84669 14.1217 4 12 4V4ZM15.669 15.5905C15.6349 15.6468 15.59 15.6957 15.5371 15.7344C15.4841 15.7732 15.424 15.8011 15.3603 15.8165C15.2965 15.8319 15.2304 15.8345 15.1657 15.8242C15.1009 15.8139 15.0388 15.7908 14.983 15.7563C13.104 14.6041 10.74 14.3429 7.955 14.9828C7.82597 15.0124 7.69053 14.9892 7.57848 14.9185C7.46643 14.8478 7.38694 14.7352 7.3575 14.6056C7.32806 14.476 7.35108 14.3399 7.4215 14.2273C7.49192 14.1148 7.60397 14.0349 7.733 14.0054C10.781 13.3062 13.395 13.6066 15.503 14.9014C15.6158 14.9709 15.6966 15.0824 15.7277 15.2115C15.7588 15.3407 15.7377 15.477 15.669 15.5905V15.5905ZM16.648 13.4026C16.5614 13.5442 16.4223 13.6454 16.2614 13.684C16.1005 13.7226 15.931 13.6955 15.79 13.6086C13.64 12.2815 10.362 11.8968 7.818 12.6723C7.66315 12.7093 7.5001 12.6855 7.36211 12.6058C7.22411 12.5262 7.12157 12.3966 7.07539 12.2436C7.02921 12.0906 7.04288 11.9257 7.11361 11.7825C7.18433 11.6392 7.30679 11.5285 7.456 11.4729C10.361 10.5879 13.973 11.0168 16.442 12.5407C16.5831 12.6276 16.684 12.7672 16.7227 12.9288C16.7613 13.0905 16.7344 13.2609 16.648 13.4026V13.4026ZM16.732 11.1243C14.154 9.58532 9.9 9.44368 7.438 10.1941C7.2481 10.2519 7.04313 10.2316 6.86815 10.1376C6.69318 10.0435 6.56255 9.88357 6.505 9.69281C6.44745 9.50205 6.46769 9.29613 6.56127 9.12037C6.65485 8.9446 6.8141 8.81337 7.004 8.75556C9.829 7.89466 14.527 8.06041 17.496 9.83043C17.6668 9.93221 17.7904 10.098 17.8395 10.2913C17.8886 10.4845 17.8593 10.6895 17.758 10.8611C17.6567 11.0327 17.4917 11.1568 17.2993 11.2062C17.1068 11.2555 16.9028 11.2261 16.732 11.1243V11.1243Z" fill="#757575"/>
</g>
<defs>
<clipPath id="clip0_1225_29">
<rect width="16" height="16.0729" fill="white" transform="translate(4 4)"/>
</clipPath>
</defs>
</svg>
