<svg width="24" height="24" viewBox="0 0 24 24" fill="none" xmlns="http://www.w3.org/2000/svg">
<path d="M9.026 19.0677C15.064 19.0677 18.367 14.0419 18.367 9.6912C18.367 9.55057 18.367 9.40792 18.361 9.26728C19.0041 8.79965 19.5591 8.22069 20 7.55753C19.3993 7.82359 18.7628 7.99894 18.111 8.07789C18.7975 7.66566 19.3117 7.01705 19.558 6.25262C18.913 6.63648 18.207 6.90595 17.471 7.04923C16.9762 6.51985 16.3214 6.16915 15.6081 6.05146C14.8948 5.93377 14.1627 6.05564 13.5253 6.39821C12.888 6.74078 12.3808 7.28492 12.0824 7.94635C11.7841 8.60778 11.7112 9.34959 11.875 10.0569C10.5697 9.99111 9.29282 9.65049 8.12704 9.05707C6.96127 8.46366 5.93268 7.63071 5.108 6.61225C4.68934 7.33862 4.56157 8.19783 4.75065 9.01541C4.93972 9.83298 5.43145 10.5476 6.126 11.0142C5.60554 10.9964 5.09652 10.856 4.64 10.6043V10.6495C4.6409 11.4105 4.90331 12.1478 5.38287 12.7368C5.86244 13.3258 6.52975 13.7304 7.272 13.8822C6.99026 13.9602 6.69923 13.999 6.407 13.9977C6.20098 13.9984 5.99538 13.9792 5.793 13.9405C6.00279 14.5955 6.41127 15.1682 6.96125 15.5784C7.51122 15.9885 8.17513 16.2156 8.86 16.2278C7.69656 17.1458 6.2594 17.6437 4.78 17.6412C4.51932 17.6424 4.25882 17.6273 4 17.596C5.50151 18.5577 7.2453 19.0683 9.026 19.0677V19.0677Z" fill="#757575"/>
</svg>
