<svg width="48" height="48" viewBox="0 0 48 48" fill="none" xmlns="http://www.w3.org/2000/svg">
<path d="M24 18C24.1989 18 24.3897 18.079 24.5303 18.2197C24.671 18.3603 24.75 18.5511 24.75 18.75V23.25H29.25C29.4489 23.25 29.6397 23.329 29.7803 23.4697C29.921 23.6103 30 23.8011 30 24C30 24.1989 29.921 24.3897 29.7803 24.5303C29.6397 24.671 29.4489 24.75 29.25 24.75H24.75V29.25C24.75 29.4489 24.671 29.6397 24.5303 29.7803C24.3897 29.921 24.1989 30 24 30C23.8011 30 23.6103 29.921 23.4697 29.7803C23.329 29.6397 23.25 29.4489 23.25 29.25V24.75H18.75C18.5511 24.75 18.3603 24.671 18.2197 24.5303C18.079 24.3897 18 24.1989 18 24C18 23.8011 18.079 23.6103 18.2197 23.4697C18.3603 23.329 18.5511 23.25 18.75 23.25H23.25V18.75C23.25 18.5511 23.329 18.3603 23.4697 18.2197C23.6103 18.079 23.8011 18 24 18Z" fill="white"/>
</svg>
