<svg width="24" height="24" viewBox="0 0 24 24" fill="none" xmlns="http://www.w3.org/2000/svg">
<g clip-path="url(#clip0_1117_10)">
<path fill-rule="evenodd" clip-rule="evenodd" d="M10.5 16C11.2223 16 11.9375 15.8577 12.6048 15.5813C13.272 15.3049 13.8784 14.8998 14.3891 14.3891C14.8998 13.8784 15.3049 13.272 15.5813 12.6048C15.8577 11.9375 16 11.2223 16 10.5C16 9.77773 15.8577 9.06253 15.5813 8.39524C15.3049 7.72795 14.8998 7.12163 14.3891 6.61091C13.8784 6.10019 13.272 5.69506 12.6048 5.41866C11.9375 5.14226 11.2223 5 10.5 5C9.04131 5 7.64236 5.57946 6.61091 6.61091C5.57946 7.64236 5 9.04131 5 10.5C5 11.9587 5.57946 13.3576 6.61091 14.3891C7.64236 15.4205 9.04131 16 10.5 16ZM17 10.5C17 12.2239 16.3152 13.8772 15.0962 15.0962C13.8772 16.3152 12.2239 17 10.5 17C8.77609 17 7.12279 16.3152 5.90381 15.0962C4.68482 13.8772 4 12.2239 4 10.5C4 8.77609 4.68482 7.12279 5.90381 5.90381C7.12279 4.68482 8.77609 4 10.5 4C12.2239 4 13.8772 4.68482 15.0962 5.90381C16.3152 7.12279 17 8.77609 17 10.5Z" fill="white"/>
<path d="M14.3438 15.7427C14.3737 15.7827 14.4058 15.8207 14.4418 15.8577L18.2917 19.7077C18.4793 19.8954 18.7336 20.0009 18.9989 20.001C19.2642 20.001 19.5186 19.8958 19.7063 19.7082C19.8939 19.5207 19.9994 19.2664 19.9995 19.0011C19.9995 18.7358 19.8943 18.4814 19.7067 18.2937L15.8568 14.4437C15.821 14.4076 15.7826 14.3741 15.7417 14.3438C15.3495 14.8786 14.8781 15.3507 14.3438 15.7437V15.7427Z" fill="white"/>
</g>
<defs>
<clipPath id="clip0_1117_10">
<rect width="16" height="16" fill="white" transform="translate(4 4)"/>
</clipPath>
</defs>
</svg>
