<svg width="24" height="24" viewBox="0 0 24 24" fill="none" xmlns="http://www.w3.org/2000/svg">
<path d="M12.051 6.00781H12.14C12.962 6.01083 17.127 6.04096 18.25 6.34434C18.5895 6.43693 18.8989 6.6174 19.1472 6.86772C19.3955 7.11804 19.574 7.42944 19.665 7.7708C19.766 8.15254 19.837 8.65783 19.885 9.17919L19.895 9.28366L19.917 9.54485L19.925 9.64932C19.99 10.5675 19.998 11.4274 19.999 11.6152V11.6906C19.998 11.8855 19.989 12.8036 19.917 13.76L19.909 13.8654L19.9 13.9699C19.85 14.5445 19.776 15.1151 19.665 15.535C19.5743 15.8765 19.3958 16.1881 19.1475 16.4384C18.8991 16.6888 18.5896 16.8692 18.25 16.9615C17.09 17.2749 12.681 17.297 12.07 17.298H11.928C11.619 17.298 10.341 17.292 9.001 17.2458L8.831 17.2397L8.744 17.2357L8.573 17.2287L8.402 17.2216C7.292 17.1724 6.235 17.0931 5.748 16.9605C5.40849 16.8682 5.09907 16.688 4.85072 16.4378C4.60238 16.1877 4.42385 15.8763 4.333 15.535C4.222 15.1161 4.148 14.5445 4.098 13.9699L4.09 13.8644L4.082 13.76C4.03265 13.0793 4.0053 12.3972 4 11.7147L4 11.5911C4.002 11.3751 4.01 10.6288 4.064 9.80503L4.071 9.70156L4.074 9.64932L4.082 9.54485L4.104 9.28366L4.114 9.17919C4.162 8.65783 4.233 8.15153 4.334 7.7708C4.42469 7.4293 4.60316 7.11775 4.85151 6.86739C5.09986 6.61703 5.40937 6.43665 5.749 6.34434C6.236 6.21375 7.293 6.13338 8.403 6.08315L8.573 6.07612L8.745 6.0701L8.831 6.06708L9.002 6.06005C9.95371 6.02928 10.9058 6.01221 11.858 6.00882H12.051V6.00781ZM10.4 9.23243V14.0724L14.557 11.6534L10.4 9.23243Z" fill="#757575"/>
</svg>
