<svg width="212" height="14" viewBox="0 0 212 14" fill="none" xmlns="http://www.w3.org/2000/svg">
<path d="M114.007 13.677V0.376953H116.021V5.65388H125.386V0.376953H127.346V13.677H125.386V7.16157H116.021V13.677H114.007Z" fill="white"/>
<path d="M147.872 12.4923C149.668 12.4923 151.138 11.9538 152.282 10.9846C153.425 9.96154 154.024 8.66923 154.024 7.10769C154.024 5.54615 153.425 4.25385 152.282 3.23077C151.138 2.20769 149.614 1.72308 147.872 1.72308C146.129 1.72308 144.659 2.26154 143.462 3.23077C142.318 4.25385 141.719 5.54615 141.719 7.10769C141.719 8.66923 142.318 9.96154 143.462 10.9846C144.659 11.9538 146.075 12.4923 147.872 12.4923ZM147.872 14C145.476 14 143.516 13.3 141.991 12.0077C140.467 10.7154 139.65 9.04615 139.65 7C139.65 4.95385 140.467 3.28462 141.991 1.99231C143.516 0.7 145.476 0 147.872 0C150.267 0 152.227 0.7 153.806 1.99231C155.385 3.28462 156.147 4.95385 156.147 7C156.147 9.04615 155.33 10.6615 153.806 12.0077C152.227 13.3538 150.267 14 147.872 14Z" fill="white"/>
<path d="M168.288 13.677V0.376953H170.139L176.509 8.50772L182.934 0.376953H184.73V13.677H182.77V3.28465L176.509 11.2L170.194 3.28465V13.677H168.288Z" fill="white"/>
<path d="M198.178 13.677V0.376953H210.646V1.93849H200.138V5.81541H206.453V7.32311H200.138V12.1693H211.244V13.677H198.178Z" fill="white"/>
<path d="M0 13.677L10.6711 1.93849H0.871111V0.376953H14.2644L3.81111 12.1693H14.21V13.677H0Z" fill="white"/>
<path d="M28.9098 8.56157H35.8787L32.3398 2.63849L28.9098 8.56157ZM23.792 13.677L31.5775 0.376953H33.2109L41.1053 13.6231H38.982L36.8042 10.0693H27.9842L25.8609 13.6231L23.792 13.677Z" fill="white"/>
<path d="M54.1182 6.30003H61.0871C62.0671 6.30003 62.8293 6.08465 63.3738 5.70772C63.9182 5.3308 64.1904 4.84618 64.1904 4.09234C64.1904 3.39234 63.9182 2.85388 63.3738 2.47695C62.8293 2.10003 62.176 1.88465 61.196 1.88465H54.1182V6.30003ZM52.1582 13.677V0.376953H61.2504C62.7749 0.376953 63.9726 0.70003 64.8982 1.34618C65.8238 1.99234 66.2049 2.90772 66.2049 4.03849C66.2049 4.95388 65.8782 5.81541 65.2249 6.51541C64.5171 7.21541 63.646 7.59234 62.5571 7.80772L66.5315 13.677H64.3538L60.3793 7.86157H54.2271V13.677H52.1582Z" fill="white"/>
<path d="M80.3055 8.56143H87.2744L83.79 2.63836L80.3055 8.56143ZM75.2422 13.6768L83.0278 0.430664H84.6611L92.5011 13.6768H90.3778L88.2 10.123H79.4344L77.3111 13.6768H75.2422Z" fill="white"/>
</svg>
